<svg width="415" height="774" viewBox="0 0 415 774" fill="none" xmlns="http://www.w3.org/2000/svg">
<path d="M1.75068 774C46.0562 564.508 44.0811 365.243 34.6095 234.927C24.3299 93.7557 3.3218 0.942042 3.09735 0L1.39156 0.583169C1.61601 1.52521 22.5792 94.2042 32.814 235.197C42.2856 365.288 44.2607 564.283 0 773.462L1.75068 774Z" fill="#131618"/>
<path d="M382.007 291.495L381.872 289.297L38.1562 321.281L38.2909 323.48L382.007 291.495Z" fill="#131618"/>
<path d="M414.282 521.618L415 519.6L38.6049 321.367L37.8867 323.386L414.282 521.618Z" fill="#131618"/>
<path d="M255.329 82.7634L254.117 81.1484L37.6172 321.549L38.8292 323.164L255.329 82.7634Z" fill="#131618"/>
<path d="M233.424 611.837L38.9189 321.688L37.5273 323.078L232.077 613.227L233.424 611.837Z" fill="#131618"/>
<path d="M403.284 514.627L401.938 513.057C341.966 444.692 370.515 293.202 370.785 291.677L370.919 291.004L370.381 290.735C275.799 242.556 243.659 96.5847 243.344 95.1044L243.165 94.2969L242.536 94.5212C181.038 114.17 119.765 90.3045 79.1399 66.7983C35.1037 41.3182 5.25243 10.814 4.9831 10.5L4.1302 11.7561C4.44443 12.0701 34.3855 42.7089 78.5564 68.2786C119.226 91.8297 180.589 115.74 242.222 96.3156C244.915 108.024 278.178 245.069 369.393 291.946C367.373 303.072 342.953 445.454 399.738 512.743C384.745 512.25 279.256 512.25 226.735 603.314C223.01 604.077 183.866 612.196 138.304 634.267C94.2676 655.575 35.1037 694.513 3.23242 759.244L4.39954 760.097C36.0913 695.769 94.9858 657.01 138.798 635.792C186.335 612.824 226.87 604.974 227.274 604.884L227.543 604.839L227.723 604.57C283.565 507.315 400.322 514.403 401.534 514.493L403.284 514.627Z" fill="#131618"/>
<path d="M368.135 496.1L366.789 494.575C312.428 431.951 339.047 295.983 339.361 294.637L339.496 293.965L338.957 293.695C253.084 249.375 224.535 117.713 224.266 116.367L222.964 116.771C223.233 118.117 251.827 250.047 337.925 294.907C335.95 305.404 313.326 432.759 364.634 494.306C350.628 494.036 256.137 495.293 209.497 577.654C202.18 579.09 70.1163 606.857 12.6133 708.643L13.7355 709.585C72.2709 605.96 208.689 579.448 210.036 579.224L210.395 579.134L210.529 578.731C260.222 490.672 365.262 495.921 366.34 496.01L368.135 496.1Z" fill="#131618"/>
<path d="M307.806 297.735L308.075 296.927L307.447 296.613C230.417 256.195 205.414 138.709 205.144 137.543L204.965 136.78L204.336 136.96C116.802 162.26 31.6927 85.9099 15.5326 70.3438L14.7246 71.6447C30.9296 87.2557 116.129 163.696 204.067 138.709C206.401 149.116 232.616 259.111 306.953 298.139L307.222 297.421L307.806 297.735Z" fill="#131618"/>
<path d="M331.148 477.484L331.193 475.824C330.25 475.779 236.342 472.19 192.261 551.995C185.662 553.296 73.2598 576.488 19.7969 662.887L20.8742 663.874C75.3696 575.86 191.588 553.789 192.755 553.565L193.069 553.52L193.249 553.206C236.791 473.895 330.205 477.439 331.148 477.484Z" fill="#131618"/>
<path d="M296.448 457.569C253.22 406.609 276.203 301.549 276.428 300.517L276.562 299.845L276.024 299.575C207.747 262.97 186.29 159.749 186.111 158.718L185.976 157.955L185.348 158.134C110.203 178.411 39.7272 118.255 19.9311 99.3241L19.7964 99.2344L19.2129 100.715C39.009 119.6 109.575 179.801 185.033 159.929C187.143 169.529 209.722 265.393 275.081 300.787C273.151 310.028 253.714 409.346 295.64 458.781L296.448 457.569Z" fill="#131618"/>
<path d="M175.517 527.818L175.338 526.203C174.35 526.383 74.9209 544.73 25.3633 620.228L26.3957 621.26C75.6391 546.255 174.53 527.953 175.517 527.818Z" fill="#131618"/>
<path d="M262.512 440.472L261.345 439.036C225.478 396.016 242.85 312.937 244.915 303.606L245.185 302.844L244.601 302.395C185.033 269.738 167.167 180.827 166.988 179.93L165.686 180.289C165.866 181.186 183.776 270.366 243.479 303.606C241.01 314.911 224.85 395.433 259.235 438.812C248.551 439.216 186.829 443.881 157.785 500.538C152.129 501.615 72.1819 517.495 29.7168 579.535L30.7492 580.612C74.2019 517.091 157.426 502.288 158.279 502.153L158.594 502.108L158.773 501.794C190.016 440.427 260.133 440.472 260.806 440.517L262.512 440.472Z" fill="#131618"/>
<path d="M227.273 421.905L226.151 420.515C194.504 381.622 212.684 309.443 213.492 306.393L213.672 305.72L213.178 305.361C162.408 276.651 148.089 201.916 147.954 201.153L147.819 200.391L147.191 200.525C91.2142 212.233 40.9833 169.169 26.933 155.711L26.0801 157.012C40.1753 170.514 90.496 213.624 146.787 202.275C148.448 210.26 163.89 278.849 212.101 306.572C210.036 315.006 194.729 382.25 224.176 420.38C214.749 421.053 163.845 426.795 140.547 474.884C135.295 475.826 69.3981 488.611 33.1726 540.423L34.205 541.5C71.463 488.252 140.368 476.589 141.086 476.454L141.4 476.409L141.58 476.05C166.718 423.7 225.163 421.95 225.747 421.95L227.273 421.905Z" fill="#131618"/>
<path d="M181.98 309.396L182.249 308.633L181.666 308.275C139.65 283.378 128.921 222.952 128.831 222.369L128.697 221.607L128.068 221.696C81.1143 229.412 40.9834 194.243 29.7611 183.297L28.9082 184.598C40.1754 195.588 80.396 230.803 127.619 223.446C129.011 230.534 140.996 286.024 181.082 309.755L181.352 309.037L181.98 309.396Z" fill="#131618"/>
<path d="M190.6 403.418L190.51 401.758C190.016 401.803 142.748 405.257 123.266 449.129C118.463 449.937 65.5387 459.671 35.6426 502.467L36.675 503.543C67.5139 459.402 123.221 450.789 123.805 450.744L124.164 450.699L124.344 450.34C143.332 406.917 190.106 403.462 190.6 403.418Z" fill="#131618"/>
<path d="M156.798 384.758L155.9 383.547C135.071 355.913 150.423 312.759 150.558 312.355L150.827 311.637L150.289 311.278C117.071 290.239 109.844 244.035 109.754 243.586L108.452 243.9C108.542 244.349 115.769 290.823 149.122 312.4C147.236 318.142 135.341 357.08 154.104 383.502C147.64 384.803 118.013 392.339 106.163 423.381C97.9031 424.682 59.9718 432.443 37.3926 465.773L38.425 466.805C60.8696 433.609 98.8907 426.163 106.387 424.996L106.836 425.221L107.15 424.503C119.989 390.141 155.137 384.937 155.451 384.892L156.798 384.758Z" fill="#131618"/>
<path d="M121.471 366.095L120.753 365.064C105.58 343.307 118.912 315.629 119.047 315.36L119.406 314.642L118.823 314.238C94.3579 297.057 90.7668 265.117 90.7219 264.803L90.6322 264.086H90.0486C59.7933 263.816 39.7728 243.495 34.3861 237.305L33.4883 238.516C38.9648 244.796 59.0751 265.207 89.5099 265.745C90.1833 270.59 95.1211 299.076 117.611 315.27C115.591 319.801 105.67 344.698 119.137 365.198C114.468 366.858 95.166 375.022 88.8366 397.811C84.8415 398.304 55.3493 402.745 38.4261 430.154L39.5034 431.141C57.2346 402.431 89.1059 399.426 89.4201 399.381L89.7793 399.291L89.9139 398.753C96.6922 373.363 120.169 366.454 120.394 366.364L121.471 366.095Z" fill="#131618"/>
<path d="M72.0479 373.636V371.977C71.8235 371.977 50.2767 371.887 38.6953 396.335L39.8624 397.143C51.0398 373.591 71.8235 373.636 72.0479 373.636Z" fill="#131618"/>
<path d="M85.6038 346.542C76.0873 330.797 86.9953 318.954 87.4442 318.46L88.1175 317.787L87.3993 317.204C71.6881 303.971 71.5983 286.296 71.5983 286.162V285.444L71.0148 285.309C46.1013 280.33 36.2257 263.687 36.1359 263.508L35.0586 264.45C35.4626 265.168 45.2035 281.586 70.2966 286.835C70.4761 290.289 72.137 305.855 86.0078 317.967C83.6286 320.972 75.6384 332.815 84.5713 347.574L85.6038 346.542Z" fill="#131618"/>
</svg>
